REM GENRE Classical
REM DATE 2007
REM DISCID 160B5F03
REM COMMENT "ExactAudioCopy v0.99pb5"
PERFORMER "DeAgostini Classica"
TITLE "Брамс"
FILE "DeAgostini Classica - Брамс.flac" WAVE
  TRACK 01 AUDIO
    TITLE "Фортепианный концерт ре минор соч. 15 - Maestoso"
    PERFORMER "DeAgostini Classica 1"
    INDEX 00 00:00:00
    INDEX 01 00:00:32
  TRACK 02 AUDIO
    TITLE "Фортепианный концерт ре минор соч. 15 - Adagio"
    PERFORMER "DeAgostini Classica 2"
    INDEX 00 21:53:67
    INDEX 01 22:01:07
  TRACK 03 AUDIO
    TITLE "Фортепианный концерт ре минор соч. 15 - Rondo. Allegro ma non troppo"
    PERFORMER "DeAgostini Classica 3"
    INDEX 00 36:38:15
    INDEX 01 36:45:07
